# WaveFront *.obj file (generated by Autodesk ATF)

mtllib Shelter v3.mtl

g Body3

v -5.000000 -5.000000 0.901000
v 5.000000 -5.000000 0.901000
v 5.000000 5.000000 0.901000
v -5.000000 5.000000 0.901000
v -5.000000 5.000000 0.900000
v -5.000000 -5.000000 0.900000
v 5.000000 5.000000 0.900000
v 5.000000 -5.000000 0.900000
vt -5.000000 -5.000000 0.000000
vt 5.000000 -5.000000 0.000000
vt -5.000000 5.000000 0.000000
vt 5.000000 5.000000 0.000000
vt 0.000000 -0.501000 0.000000
vt 10.000000 -0.501000 0.000000
vt 0.000000 -0.500000 0.000000
vt 10.000000 -0.500000 0.000000
vt 0.000000 -0.501000 0.000000
vt 10.000000 -0.501000 0.000000
vt 0.000000 -0.500000 0.000000
vt 10.000000 -0.500000 0.000000
vt -5.000000 -5.000000 0.000000
vt 5.000000 -5.000000 0.000000
vt -5.000000 5.000000 0.000000
vt 5.000000 5.000000 0.000000
vt 0.000000 -0.501000 0.000000
vt 10.000000 -0.501000 0.000000
vt 0.000000 -0.500000 0.000000
vt 10.000000 -0.500000 0.000000
vt 0.000000 -0.501000 0.000000
vt 10.000000 -0.501000 0.000000
vt 0.000000 -0.500000 0.000000
vt 10.000000 -0.500000 0.000000
vn -0.000000 -0.000000 1.000000
vn -0.000000 -0.000000 1.000000
vn -0.000000 -0.000000 1.000000
vn -0.000000 -0.000000 1.000000
vn -1.000000 0.000000 0.000000
vn -1.000000 0.000000 0.000000
vn -1.000000 0.000000 0.000000
vn -1.000000 0.000000 0.000000
vn 0.000000 1.000000 0.000000
vn 0.000000 1.000000 0.000000
vn 0.000000 1.000000 0.000000
vn 0.000000 1.000000 0.000000
vn -0.000000 -0.000000 -1.000000
vn -0.000000 -0.000000 -1.000000
vn -0.000000 -0.000000 -1.000000
vn -0.000000 -0.000000 -1.000000
vn 1.000000 0.000000 0.000000
vn 1.000000 0.000000 0.000000
vn 1.000000 0.000000 0.000000
vn 1.000000 0.000000 0.000000
vn -0.000000 -1.000000 -0.000000
vn -0.000000 -1.000000 -0.000000
vn -0.000000 -1.000000 -0.000000
vn -0.000000 -1.000000 -0.000000
usemtl Steel_-_Satin
f 1/1/1 2/2/2 4/3/3
f 4/3/3 2/2/2 3/4/4
f 1/5/5 4/6/6 6/7/7
f 6/7/7 4/6/6 5/8/8
f 4/9/9 3/10/10 5/11/11
f 5/11/11 3/10/10 7/12/12
f 8/13/13 6/14/14 7/15/15
f 7/15/15 6/14/14 5/16/16
f 3/17/17 2/18/18 7/19/19
f 7/19/19 2/18/18 8/20/20
f 2/21/21 1/22/22 8/23/23
f 8/23/23 1/22/22 6/24/24
g Body7

v -5.000000 -5.000000 0.901000
v 5.000000 -5.000000 0.901000
v 5.000000 5.000000 0.901000
v -5.000000 5.000000 0.901000
v -4.950000 -4.950000 0.901000
v -4.950000 -4.500000 0.901000
v -4.999900 -4.500000 0.901000
v -4.999900 4.500000 0.901000
v -4.950000 4.500000 0.901000
v -4.950000 4.950000 0.901000
v -4.500000 4.950000 0.901000
v -4.500000 4.999000 0.901000
v 4.500000 4.999000 0.901000
v 4.500000 4.950000 0.901000
v 4.950000 4.950000 0.901000
v 4.950000 4.500000 0.901000
v 4.999000 4.500000 0.901000
v 4.999000 -4.500000 0.901000
v 4.950000 -4.500000 0.901000
v 4.950000 -4.950000 0.901000
v 4.500000 -4.950000 0.901000
v 4.500000 -4.999000 0.901000
v -4.500000 -4.999000 0.901000
v -4.500000 -4.950000 0.901000
v 4.500000 4.950000 -1.900000
v 4.950000 4.950000 -1.900000
v 4.500000 4.999000 -0.200000
v 4.500000 5.000000 -0.200000
v 4.500000 5.000000 -1.900000
v -4.500000 4.999000 -0.200000
v -4.500000 4.950000 -1.900000
v -4.500000 5.000000 -1.900000
v -4.500000 5.000000 -0.200000
v -4.950000 4.950000 -1.900000
v -4.950000 4.500000 -1.900000
v -4.999900 4.500000 -0.200000
v -5.000000 4.500000 -0.200000
v -5.000000 4.500000 -1.900000
v -4.999900 -4.500000 -0.200000
v -4.950000 -4.500000 -1.900000
v -5.000000 -4.500000 -1.900000
v -5.000000 -4.500000 -0.200000
v -4.950000 -4.950000 -1.900000
v -5.000000 5.000000 -1.900000
v -5.000000 -5.000000 -1.900000
v 5.000000 5.000000 -1.900000
v 4.950000 4.500000 -1.900000
v 5.000000 4.500000 -1.900000
v -4.500000 -4.950000 -1.900000
v -4.500000 -5.000000 -1.900000
v 4.950000 -4.950000 -1.900000
v 4.950000 -4.500000 -1.900000
v 5.000000 -4.500000 -1.900000
v 5.000000 -5.000000 -1.900000
v 4.500000 -5.000000 -1.900000
v 4.500000 -4.950000 -1.900000
v -4.500000 -4.999000 -0.200000
v -4.500000 -5.000000 -0.200000
v 4.999000 -4.500000 -0.200000
v 5.000000 -4.500000 -0.200000
v 5.000000 4.500000 -0.200000
v 4.999000 4.500000 -0.200000
v 4.500000 -5.000000 -0.200000
v 4.500000 -4.999000 -0.200000
vt 5.000000 -5.000000 0.000000
vt -4.500000 -4.999000 0.000000
vt -5.000000 -5.000000 0.000000
vt -4.950000 -4.950000 0.000000
vt -4.999900 -4.500000 0.000000
vt -4.950000 -4.500000 0.000000
vt 5.000000 5.000000 0.000000
vt 4.999000 4.500000 0.000000
vt 4.999000 -4.500000 0.000000
vt 4.950000 -4.950000 0.000000
vt 4.950000 -4.500000 0.000000
vt -5.000000 5.000000 0.000000
vt 4.500000 4.999000 0.000000
vt 4.950000 4.950000 0.000000
vt 4.950000 4.500000 0.000000
vt -4.999900 4.500000 0.000000
vt -4.950000 4.950000 0.000000
vt -4.500000 4.999000 0.000000
vt -4.500000 4.950000 0.000000
vt -4.950000 4.500000 0.000000
vt 4.500000 4.950000 0.000000
vt 4.500000 -4.950000 0.000000
vt 4.500000 -4.999000 0.000000
vt -4.500000 -4.950000 0.000000
vt -0.000000 2.901000 0.000000
vt -0.450000 2.901000 0.000000
vt -0.000000 0.100000 0.000000
vt -0.450000 0.100000 0.000000
vt 9.499000 -0.401000 0.000000
vt 9.499000 0.700000 0.000000
vt 9.450000 -0.401000 0.000000
vt 9.450000 2.400000 0.000000
vt 9.500000 2.400000 0.000000
vt 9.500000 0.700000 0.000000
vt -0.401000 -9.000000 0.000000
vt 0.700000 -9.000000 0.000000
vt -0.401000 0.000000 0.000000
vt 0.700000 0.000000 0.000000
vt -0.499000 -0.401000 0.000000
vt -0.450000 -0.401000 0.000000
vt -0.499000 0.700000 0.000000
vt -0.450000 2.400000 0.000000
vt -0.500000 2.400000 0.000000
vt -0.500000 0.700000 0.000000
vt 0.000000 2.901000 0.000000
vt -0.450000 2.901000 0.000000
vt 0.000000 0.100000 0.000000
vt -0.450000 0.100000 0.000000
vt 0.000000 2.901000 0.000000
vt -0.450000 2.901000 0.000000
vt 0.000000 0.100000 0.000000
vt -0.450000 0.100000 0.000000
vt 0.499900 -1.901000 0.000000
vt 0.499900 -0.800000 0.000000
vt 0.450000 -1.901000 0.000000
vt 0.450000 0.900000 0.000000
vt 0.500000 0.900000 0.000000
vt 0.500000 -0.800000 0.000000
vt -0.401000 -9.000000 0.000000
vt 0.700000 -9.000000 0.000000
vt -0.401000 0.000000 0.000000
vt 0.700000 0.000000 0.000000
vt -0.499900 -0.401000 0.000000
vt -0.450000 -0.401000 0.000000
vt -0.499900 0.700000 0.000000
vt -0.450000 2.400000 0.000000
vt -0.500000 2.400000 0.000000
vt -0.500000 0.700000 0.000000
vt -0.000000 2.901000 0.000000
vt -0.450000 2.901000 0.000000
vt -0.000000 0.100000 0.000000
vt -0.450000 0.100000 0.000000
vt 0.000000 2.400000 0.000000
vt 0.000000 -0.401000 0.000000
vt 0.500000 0.700000 0.000000
vt 10.000000 -0.401000 0.000000
vt 9.500000 0.700000 0.000000
vt 10.000000 2.400000 0.000000
vt 9.500000 2.400000 0.000000
vt 0.500000 2.400000 0.000000
vt 10.000000 -0.401000 0.000000
vt 9.500000 0.700000 0.000000
vt 0.000000 -0.401000 0.000000
vt 0.500000 0.700000 0.000000
vt 0.000000 2.400000 0.000000
vt 0.500000 2.400000 0.000000
vt 10.000000 2.400000 0.000000
vt 9.500000 2.400000 0.000000
vt -0.200000 -0.250000 0.000000
vt -0.200000 0.200000 0.000000
vt -0.250000 -0.250000 0.000000
vt -0.250000 0.250000 0.000000
vt 0.250000 0.250000 0.000000
vt 0.250000 0.200000 0.000000
vt 0.200000 0.250000 0.000000
vt 0.200000 -0.200000 0.000000
vt 0.250000 0.250000 0.000000
vt 0.250000 -0.250000 0.000000
vt -0.250000 -0.250000 0.000000
vt -0.250000 -0.200000 0.000000
vt -0.200000 0.250000 0.000000
vt -0.250000 0.250000 0.000000
vt -0.200000 -0.200000 0.000000
vt -0.250000 -0.250000 0.000000
vt 0.250000 -0.250000 0.000000
vt 0.250000 -0.200000 0.000000
vt 0.200000 -0.250000 0.000000
vt 0.250000 -0.250000 0.000000
vt 0.200000 0.200000 0.000000
vt 0.250000 0.250000 0.000000
vt -0.250000 0.250000 0.000000
vt -0.250000 0.200000 0.000000
vt 0.003426 2.901000 0.000000
vt -0.446574 2.901000 0.000000
vt 0.003426 0.100000 0.000000
vt -0.446574 0.100000 0.000000
vt 0.499000 -1.901000 0.000000
vt 0.499000 -0.800000 0.000000
vt 0.450000 -1.901000 0.000000
vt 0.450000 0.900000 0.000000
vt 0.500000 0.900000 0.000000
vt 0.500000 -0.800000 0.000000
vt -0.000000 2.901000 0.000000
vt -0.450000 2.901000 0.000000
vt -0.000000 0.100000 0.000000
vt -0.450000 0.100000 0.000000
vt 9.499000 -0.401000 0.000000
vt 9.499000 0.700000 0.000000
vt 9.450000 -0.401000 0.000000
vt 9.450000 2.400000 0.000000
vt 9.500000 2.400000 0.000000
vt 9.500000 0.700000 0.000000
vt -0.000000 2.901000 0.000000
vt -0.450000 2.901000 0.000000
vt -0.000000 0.100000 0.000000
vt -0.450000 0.100000 0.000000
vt 10.000000 -0.401000 0.000000
vt 9.500000 0.700000 0.000000
vt 0.000000 -0.401000 0.000000
vt 0.500000 0.700000 0.000000
vt 0.000000 2.400000 0.000000
vt 0.500000 2.400000 0.000000
vt 10.000000 2.400000 0.000000
vt 9.500000 2.400000 0.000000
vt -9.499000 -1.901000 0.000000
vt -9.450000 -1.901000 0.000000
vt -9.499000 -0.800000 0.000000
vt -9.450000 0.900000 0.000000
vt -9.500000 0.900000 0.000000
vt -9.500000 -0.800000 0.000000
vt -4.500000 4.999000 0.000000
vt 4.500000 4.999000 0.000000
vt -4.500000 5.000000 0.000000
vt 4.500000 5.000000 0.000000
vt -0.000623 2.901000 0.000000
vt -0.450623 2.901000 0.000000
vt -0.000623 0.100000 0.000000
vt -0.450623 0.100000 0.000000
vt 0.001000 -1.901000 0.000000
vt 0.050000 -1.901000 0.000000
vt 0.001000 -0.800000 0.000000
vt 0.050000 0.900000 0.000000
vt 0.000000 0.900000 0.000000
vt 0.000000 -0.800000 0.000000
vt 0.401000 9.000000 0.000000
vt -0.700000 9.000000 0.000000
vt 0.401000 0.000000 0.000000
vt -0.700000 0.000000 0.000000
vt 4.500000 -4.999000 0.000000
vt -4.500000 -4.999000 0.000000
vt 4.500000 -5.000000 0.000000
vt -4.500000 -5.000000 0.000000
vt 0.000000 2.400000 0.000000
vt 0.000000 -0.401000 0.000000
vt 0.500000 0.700000 0.000000
vt 10.000000 -0.401000 0.000000
vt 9.500000 0.700000 0.000000
vt 10.000000 2.400000 0.000000
vt 9.500000 2.400000 0.000000
vt 0.500000 2.400000 0.000000
vt 0.401000 9.000000 0.000000
vt -0.700000 9.000000 0.000000
vt 0.401000 0.000000 0.000000
vt -0.700000 0.000000 0.000000
vt -4.999000 4.500000 0.000000
vt -5.000000 4.500000 0.000000
vt -4.999000 -4.500000 0.000000
vt -5.000000 -4.500000 0.000000
vt 4.999900 -4.500000 0.000000
vt 5.000000 -4.500000 0.000000
vt 4.999900 4.500000 0.000000
vt 5.000000 4.500000 0.000000
vn -0.000000 -0.000000 1.000000
vn -0.000000 -0.000000 1.000000
vn -0.000000 -0.000000 1.000000
vn -0.000000 -0.000000 1.000000
vn -0.000000 -0.000000 1.000000
vn -0.000000 -0.000000 1.000000
vn -0.000000 -0.000000 1.000000
vn -0.000000 -0.000000 1.000000
vn -0.000000 -0.000000 1.000000
vn -0.000000 -0.000000 1.000000
vn -0.000000 -0.000000 1.000000
vn -0.000000 -0.000000 1.000000
vn -0.000000 -0.000000 1.000000
vn -0.000000 -0.000000 1.000000
vn -0.000000 -0.000000 1.000000
vn -0.000000 -0.000000 1.000000
vn -0.000000 -0.000000 1.000000
vn -0.000000 -0.000000 1.000000
vn -0.000000 -0.000000 1.000000
vn -0.000000 -0.000000 1.000000
vn -0.000000 -0.000000 1.000000
vn -0.000000 -0.000000 1.000000
vn -0.000000 -0.000000 1.000000
vn -0.000000 -0.000000 1.000000
vn -0.000000 -1.000000 0.000000
vn -0.000000 -1.000000 0.000000
vn -0.000000 -1.000000 0.000000
vn -0.000000 -1.000000 0.000000
vn -1.000000 -0.000000 -0.000000
vn -1.000000 -0.000000 -0.000000
vn -1.000000 -0.000000 -0.000000
vn -1.000000 -0.000000 -0.000000
vn -1.000000 -0.000000 -0.000000
vn -1.000000 -0.000000 -0.000000
vn -0.000000 -1.000000 -0.000000
vn -0.000000 -1.000000 -0.000000
vn -0.000000 -1.000000 -0.000000
vn -0.000000 -1.000000 -0.000000
vn 1.000000 0.000000 0.000000
vn 1.000000 0.000000 0.000000
vn 1.000000 0.000000 0.000000
vn 1.000000 0.000000 0.000000
vn 1.000000 0.000000 0.000000
vn 1.000000 0.000000 0.000000
vn -0.000000 -1.000000 -0.000000
vn -0.000000 -1.000000 -0.000000
vn -0.000000 -1.000000 -0.000000
vn -0.000000 -1.000000 -0.000000
vn 1.000000 -0.000000 -0.000000
vn 1.000000 -0.000000 -0.000000
vn 1.000000 -0.000000 -0.000000
vn 1.000000 -0.000000 -0.000000
vn -0.000000 -1.000000 -0.000000
vn -0.000000 -1.000000 -0.000000
vn -0.000000 -1.000000 -0.000000
vn -0.000000 -1.000000 -0.000000
vn -0.000000 -1.000000 -0.000000
vn -0.000000 -1.000000 -0.000000
vn 1.000000 -0.000000 -0.000000
vn 1.000000 -0.000000 -0.000000
vn 1.000000 -0.000000 -0.000000
vn 1.000000 -0.000000 -0.000000
vn 0.000000 1.000000 0.000000
vn 0.000000 1.000000 0.000000
vn 0.000000 1.000000 0.000000
vn 0.000000 1.000000 0.000000
vn 0.000000 1.000000 0.000000
vn 0.000000 1.000000 0.000000
vn 1.000000 -0.000000 -0.000000
vn 1.000000 -0.000000 -0.000000
vn 1.000000 -0.000000 -0.000000
vn 1.000000 -0.000000 -0.000000
vn -1.000000 0.000000 0.000000
vn -1.000000 0.000000 0.000000
vn -1.000000 0.000000 0.000000
vn -1.000000 0.000000 0.000000
vn -1.000000 0.000000 0.000000
vn -1.000000 0.000000 0.000000
vn -1.000000 0.000000 0.000000
vn -1.000000 0.000000 0.000000
vn -0.000000 1.000000 0.000000
vn -0.000000 1.000000 0.000000
vn -0.000000 1.000000 0.000000
vn -0.000000 1.000000 0.000000
vn -0.000000 1.000000 0.000000
vn -0.000000 1.000000 0.000000
vn -0.000000 1.000000 0.000000
vn -0.000000 1.000000 0.000000
vn -0.000000 -0.000000 -1.000000
vn -0.000000 -0.000000 -1.000000
vn -0.000000 -0.000000 -1.000000
vn -0.000000 -0.000000 -1.000000
vn -0.000000 -0.000000 -1.000000
vn -0.000000 -0.000000 -1.000000
vn -0.000000 -0.000000 -1.000000
vn -0.000000 -0.000000 -1.000000
vn -0.000000 -0.000000 -1.000000
vn -0.000000 -0.000000 -1.000000
vn -0.000000 -0.000000 -1.000000
vn -0.000000 -0.000000 -1.000000
vn -0.000000 -0.000000 -1.000000
vn -0.000000 -0.000000 -1.000000
vn -0.000000 -0.000000 -1.000000
vn -0.000000 -0.000000 -1.000000
vn -0.000000 -0.000000 -1.000000
vn -0.000000 -0.000000 -1.000000
vn -0.000000 -0.000000 -1.000000
vn -0.000000 -0.000000 -1.000000
vn -0.000000 -0.000000 -1.000000
vn -0.000000 -0.000000 -1.000000
vn -0.000000 -0.000000 -1.000000
vn -0.000000 -0.000000 -1.000000
vn -1.000000 -0.000000 -0.000000
vn -1.000000 -0.000000 -0.000000
vn -1.000000 -0.000000 -0.000000
vn -1.000000 -0.000000 -0.000000
vn 1.000000 -0.000000 0.000000
vn 1.000000 -0.000000 0.000000
vn 1.000000 -0.000000 0.000000
vn 1.000000 -0.000000 0.000000
vn 1.000000 -0.000000 0.000000
vn 1.000000 -0.000000 0.000000
vn -0.000000 1.000000 -0.000000
vn -0.000000 1.000000 -0.000000
vn -0.000000 1.000000 -0.000000
vn -0.000000 1.000000 -0.000000
vn 0.000000 1.000000 0.000000
vn 0.000000 1.000000 0.000000
vn 0.000000 1.000000 0.000000
vn 0.000000 1.000000 0.000000
vn 0.000000 1.000000 0.000000
vn 0.000000 1.000000 0.000000
vn -1.000000 -0.000000 0.000000
vn -1.000000 -0.000000 0.000000
vn -1.000000 -0.000000 0.000000
vn -1.000000 -0.000000 0.000000
vn 1.000000 0.000000 0.000000
vn 1.000000 0.000000 0.000000
vn 1.000000 0.000000 0.000000
vn 1.000000 0.000000 0.000000
vn 1.000000 0.000000 0.000000
vn 1.000000 0.000000 0.000000
vn 1.000000 0.000000 0.000000
vn 1.000000 0.000000 0.000000
vn -0.000000 -1.000000 -0.000000
vn -0.000000 -1.000000 -0.000000
vn -0.000000 -1.000000 -0.000000
vn -0.000000 -1.000000 -0.000000
vn -0.000000 -1.000000 -0.000000
vn -0.000000 -1.000000 -0.000000
vn -0.000000 -0.000000 -1.000000
vn -0.000000 -0.000000 -1.000000
vn -0.000000 -0.000000 -1.000000
vn -0.000000 -0.000000 -1.000000
vn -0.000000 1.000000 -0.000000
vn -0.000000 1.000000 -0.000000
vn -0.000000 1.000000 -0.000000
vn -0.000000 1.000000 -0.000000
vn -1.000000 0.000000 0.000000
vn -1.000000 0.000000 0.000000
vn -1.000000 0.000000 0.000000
vn -1.000000 0.000000 0.000000
vn -1.000000 0.000000 0.000000
vn -1.000000 0.000000 0.000000
vn -0.000000 1.000000 -0.000000
vn -0.000000 1.000000 -0.000000
vn -0.000000 1.000000 -0.000000
vn -0.000000 1.000000 -0.000000
vn -0.000000 -0.000000 -1.000000
vn -0.000000 -0.000000 -1.000000
vn -0.000000 -0.000000 -1.000000
vn -0.000000 -0.000000 -1.000000
vn -0.000000 -1.000000 -0.000000
vn -0.000000 -1.000000 -0.000000
vn -0.000000 -1.000000 -0.000000
vn -0.000000 -1.000000 -0.000000
vn -0.000000 -1.000000 -0.000000
vn -0.000000 -1.000000 -0.000000
vn -0.000000 -1.000000 -0.000000
vn -0.000000 -1.000000 -0.000000
vn -1.000000 -0.000000 -0.000000
vn -1.000000 -0.000000 -0.000000
vn -1.000000 -0.000000 -0.000000
vn -1.000000 -0.000000 -0.000000
vn -0.000000 -0.000000 -1.000000
vn -0.000000 -0.000000 -1.000000
vn -0.000000 -0.000000 -1.000000
vn -0.000000 -0.000000 -1.000000
vn -0.000000 -0.000000 -1.000000
vn -0.000000 -0.000000 -1.000000
vn -0.000000 -0.000000 -1.000000
vn -0.000000 -0.000000 -1.000000
f 10/25/25 31/26/26 9/27/27
f 9/27/27 31/26/26 13/28/28
f 9/27/27 13/28/28 15/29/29
f 15/29/29 13/28/28 14/30/30
f 11/31/31 25/32/32 10/25/25
f 10/25/25 25/32/32 26/33/33
f 10/25/25 26/33/33 28/34/34
f 28/34/34 26/33/33 27/35/35
f 12/36/36 21/37/37 11/31/31
f 11/31/31 21/37/37 23/38/38
f 11/31/31 23/38/38 25/32/32
f 25/32/32 23/38/38 24/39/39
f 9/27/27 16/40/40 12/36/36
f 12/36/36 16/40/40 18/41/41
f 12/36/36 18/41/41 20/42/42
f 20/42/42 18/41/41 19/43/43
f 15/29/29 16/40/40 9/27/27
f 16/40/40 17/44/44 18/41/41
f 20/42/42 21/37/37 12/36/36
f 21/37/37 22/45/45 23/38/38
f 29/46/46 30/47/47 28/34/34
f 28/34/34 30/47/47 10/25/25
f 30/47/47 31/26/26 10/25/25
f 31/26/26 32/48/48 13/28/28
f 23/49/49 22/50/50 34/51/51
f 34/51/51 22/50/50 33/52/52
f 21/53/53 35/54/54 22/55/55
f 22/55/55 35/54/54 33/56/56
f 33/56/56 35/54/54 37/57/57
f 37/57/57 35/54/54 36/58/58
f 20/59/59 38/60/60 21/61/61
f 21/61/61 38/60/60 35/62/62
f 20/63/63 19/64/64 38/65/65
f 38/65/65 19/64/64 39/66/66
f 38/65/65 39/66/66 40/67/67
f 40/67/67 41/68/68 38/65/65
f 19/69/69 18/70/70 39/71/71
f 39/71/71 18/70/70 42/72/72
f 18/73/73 17/74/74 42/75/75
f 42/75/75 17/74/74 43/76/76
f 16/77/77 44/78/78 17/79/79
f 17/79/79 44/78/78 43/80/80
f 43/80/80 44/78/78 46/81/81
f 46/81/81 44/78/78 45/82/82
f 15/83/83 47/84/84 16/85/85
f 16/85/85 47/84/84 44/86/86
f 15/87/87 14/88/88 47/89/89
f 47/89/89 14/88/88 48/90/90
f 47/89/89 48/90/90 49/91/91
f 49/91/91 50/92/92 47/89/89
f 14/93/93 13/94/94 48/95/95
f 48/95/95 13/94/94 51/96/96
f 53/97/97 9/98/98 50/99/99
f 50/99/99 9/98/98 12/100/100
f 50/99/99 12/100/100 45/101/101
f 45/101/101 12/100/100 52/102/102
f 45/101/101 52/102/102 46/103/103
f 50/99/99 49/104/104 53/97/97
f 11/105/105 36/106/106 12/107/107
f 12/107/107 36/106/106 41/108/108
f 12/107/107 41/108/108 52/109/109
f 52/109/109 41/108/108 40/110/110
f 11/105/105 54/111/111 36/106/106
f 36/106/106 54/111/111 37/112/112
f 55/113/113 34/114/114 56/115/115
f 56/115/115 34/114/114 54/116/116
f 54/116/116 34/114/114 37/117/117
f 37/117/117 34/114/114 33/118/118
f 48/119/119 51/120/120 49/121/121
f 49/121/121 51/120/120 53/122/122
f 53/122/122 51/120/120 58/123/123
f 58/123/123 51/120/120 57/124/124
f 60/125/125 61/126/126 59/127/127
f 59/127/127 61/126/126 62/128/128
f 59/127/127 62/128/128 63/129/129
f 63/129/129 64/130/130 59/127/127
f 43/131/131 46/132/132 42/133/133
f 42/133/133 46/132/132 52/134/134
f 42/133/133 52/134/134 40/135/135
f 40/135/135 39/136/136 42/133/133
f 24/137/137 23/138/138 55/139/139
f 55/139/139 23/138/138 34/140/140
f 31/141/141 65/142/142 32/143/143
f 32/143/143 65/142/142 57/144/144
f 57/144/144 65/142/142 58/145/145
f 58/145/145 65/142/142 66/146/146
f 13/147/147 32/148/148 51/149/149
f 51/149/149 32/148/148 57/150/150
f 26/151/151 67/152/152 27/153/153
f 27/153/153 67/152/152 60/154/154
f 60/154/154 67/152/152 61/155/155
f 61/155/155 67/152/152 68/156/156
f 28/157/157 27/158/158 59/159/159
f 59/159/159 27/158/158 60/160/160
f 10/161/161 68/162/162 11/163/163
f 11/163/163 68/162/162 69/164/164
f 11/163/163 69/164/164 54/165/165
f 54/165/165 69/164/164 56/166/166
f 10/161/161 62/167/167 68/162/162
f 68/162/162 62/167/167 61/168/168
f 25/169/169 24/170/170 70/171/171
f 70/171/171 24/170/170 55/172/172
f 70/171/171 55/172/172 56/173/173
f 56/173/173 69/174/174 70/171/171
f 35/175/175 38/176/176 36/177/177
f 36/177/177 38/176/176 41/178/178
f 29/179/179 28/180/180 64/181/181
f 64/181/181 28/180/180 59/182/182
f 30/183/183 29/184/184 72/185/185
f 72/185/185 29/184/184 64/186/186
f 72/185/185 64/186/186 63/187/187
f 63/187/187 71/188/188 72/185/185
f 30/189/189 72/190/190 31/191/191
f 31/191/191 72/190/190 65/192/192
f 65/193/193 72/194/194 66/195/195
f 66/195/195 72/194/194 71/196/196
f 62/197/197 10/198/198 71/199/199
f 71/199/199 10/198/198 9/200/200
f 71/199/199 9/200/200 66/201/201
f 66/201/201 9/200/200 53/202/202
f 66/201/201 53/202/202 58/203/203
f 71/199/199 63/204/204 62/197/197
f 25/205/205 70/206/206 26/207/207
f 26/207/207 70/206/206 67/208/208
f 70/209/209 69/210/210 67/211/211
f 67/211/211 69/210/210 68/212/212
f 47/213/213 50/214/214 44/215/215
f 44/215/215 50/214/214 45/216/216
# 72 vertices
# 216 texture params
# 216 normals
# 140 facets

# 2 groups
