# WaveFront *.obj file (generated by Autodesk ATF)

mtllib Shelter v1.mtl

g Body1

v 4.500000 -4.500000 1.000000
v -4.500000 -4.500000 1.000000
v -4.500000 4.500000 1.000000
v 4.500000 4.500000 1.000000
v -5.000000 -5.000000 1.500000
v 5.000000 -5.000000 1.500000
v 5.000000 5.000000 1.500000
v -5.000000 5.000000 1.500000
v -4.500000 4.500000 -1.000000
v -5.000000 4.500000 -1.000000
v -5.000000 4.500000 -2.000000
v -4.500000 4.500000 -2.000000
v -4.500000 5.000000 -1.000000
v -4.500000 5.000000 -2.000000
v -5.000000 5.000000 -2.000000
v -4.500000 -4.500000 -1.000000
v -5.000000 -4.500000 -1.000000
v 4.500000 4.500000 -1.000000
v 4.500000 5.000000 -1.000000
v 4.500000 5.000000 -2.000000
v 4.500000 4.500000 -2.000000
v 5.000000 4.500000 -1.000000
v 5.000000 4.500000 -2.000000
v 5.000000 5.000000 -2.000000
v 5.000000 -4.500000 -1.000000
v 4.500000 -4.500000 -1.000000
v -4.500000 -5.000000 -1.000000
v -4.500000 -5.000000 -2.000000
v -4.500000 -4.500000 -2.000000
v -5.000000 -4.500000 -2.000000
v -5.000000 -5.000000 -2.000000
v 4.500000 -5.000000 -1.000000
v 5.000000 -4.500000 -2.000000
v 4.500000 -4.500000 -2.000000
v 4.500000 -5.000000 -2.000000
v 5.000000 -5.000000 -2.000000
vt -4.500000 -4.500000 0.000000
vt 4.500000 -4.500000 0.000000
vt -4.500000 4.500000 0.000000
vt 4.500000 4.500000 0.000000
vt -5.000000 -5.000000 0.000000
vt 5.000000 -5.000000 0.000000
vt -5.000000 5.000000 0.000000
vt 5.000000 5.000000 0.000000
vt 0.000000 0.000000 0.000000
vt 0.500000 0.000000 0.000000
vt 0.000000 1.000000 0.000000
vt 0.500000 1.000000 0.000000
vt 0.000000 0.000000 0.000000
vt 0.500000 0.000000 0.000000
vt 0.000000 1.000000 0.000000
vt 0.500000 1.000000 0.000000
vt 0.250000 0.250000 0.000000
vt -0.250000 0.250000 0.000000
vt 0.250000 -0.250000 0.000000
vt -0.250000 -0.250000 0.000000
vt 5.000000 4.500000 0.000000
vt 4.500000 4.500000 0.000000
vt 5.000000 -4.500000 0.000000
vt 4.500000 -4.500000 0.000000
vt 0.000000 0.000000 0.000000
vt 0.500000 0.000000 0.000000
vt 0.000000 1.000000 0.000000
vt 0.500000 1.000000 0.000000
vt -0.000000 0.000000 0.000000
vt 0.500000 0.000000 0.000000
vt 0.000000 1.000000 0.000000
vt 0.500000 1.000000 0.000000
vt -0.250000 -0.250000 0.000000
vt 0.250000 -0.250000 0.000000
vt -0.250000 0.250000 0.000000
vt 0.250000 0.250000 0.000000
vt -4.500000 4.500000 0.000000
vt -5.000000 4.500000 0.000000
vt -4.500000 -4.500000 0.000000
vt -5.000000 -4.500000 0.000000
vt 4.500000 5.000000 0.000000
vt -4.500000 5.000000 0.000000
vt 4.500000 4.500000 0.000000
vt -4.500000 4.500000 0.000000
vt -0.000000 0.000000 0.000000
vt 0.500000 0.000000 0.000000
vt 0.000000 1.000000 0.000000
vt 0.500000 1.000000 0.000000
vt 0.000000 0.000000 0.000000
vt 0.500000 0.000000 0.000000
vt 0.000000 1.000000 0.000000
vt 0.500000 1.000000 0.000000
vt 0.250000 0.250000 0.000000
vt -0.250000 0.250000 0.000000
vt 0.250000 -0.250000 0.000000
vt -0.250000 -0.250000 0.000000
vt 4.500000 -4.500000 0.000000
vt -4.500000 -4.500000 0.000000
vt 4.500000 -5.000000 0.000000
vt -4.500000 -5.000000 0.000000
vt 0.000000 0.000000 0.000000
vt 0.500000 0.000000 0.000000
vt 0.000000 1.000000 0.000000
vt 0.500000 1.000000 0.000000
vt 0.000000 0.000000 0.000000
vt 0.500000 0.000000 0.000000
vt 0.000000 1.000000 0.000000
vt 0.500000 1.000000 0.000000
vt 0.250000 0.250000 0.000000
vt -0.250000 0.250000 0.000000
vt 0.250000 -0.250000 0.000000
vt -0.250000 -0.250000 0.000000
vt 9.000000 1.500000 0.000000
vt -0.000000 1.500000 0.000000
vt 9.000000 -0.500000 0.000000
vt 0.000000 -0.500000 0.000000
vt 9.000000 1.500000 0.000000
vt -0.000000 1.500000 0.000000
vt 9.000000 -0.500000 0.000000
vt 0.000000 -0.500000 0.000000
vt 9.000000 1.500000 0.000000
vt 0.000000 1.500000 0.000000
vt 9.000000 -0.500000 0.000000
vt 0.000000 -0.500000 0.000000
vt 9.000000 1.500000 0.000000
vt 0.000000 1.500000 0.000000
vt 9.000000 -0.500000 0.000000
vt 0.000000 -0.500000 0.000000
vt 0.000000 -1.000000 0.000000
vt 10.000000 -1.000000 0.000000
vt 9.500000 1.500000 0.000000
vt 10.000000 2.500000 0.000000
vt 9.500000 2.500000 0.000000
vt 0.500000 1.500000 0.000000
vt 0.000000 2.500000 0.000000
vt 0.500000 2.500000 0.000000
vt 0.000000 -1.000000 0.000000
vt 10.000000 -1.000000 0.000000
vt 9.500000 1.500000 0.000000
vt 10.000000 2.500000 0.000000
vt 9.500000 2.500000 0.000000
vt 0.500000 1.500000 0.000000
vt 0.000000 2.500000 0.000000
vt 0.500000 2.500000 0.000000
vt 10.000000 2.500000 0.000000
vt 9.500000 1.500000 0.000000
vt 10.000000 -1.000000 0.000000
vt 0.500000 1.500000 0.000000
vt 0.000000 -1.000000 0.000000
vt 0.000000 2.500000 0.000000
vt 0.500000 2.500000 0.000000
vt 9.500000 2.500000 0.000000
vt 10.000000 2.500000 0.000000
vt 9.500000 1.500000 0.000000
vt 10.000000 -1.000000 0.000000
vt 0.500000 1.500000 0.000000
vt 0.000000 -1.000000 0.000000
vt 0.000000 2.500000 0.000000
vt 0.500000 2.500000 0.000000
vt 9.500000 2.500000 0.000000
vn -0.000000 -0.000000 -1.000000
vn -0.000000 -0.000000 -1.000000
vn -0.000000 -0.000000 -1.000000
vn -0.000000 -0.000000 -1.000000
vn 0.000000 0.000000 1.000000
vn 0.000000 0.000000 1.000000
vn 0.000000 0.000000 1.000000
vn 0.000000 0.000000 1.000000
vn -0.000000 -1.000000 -0.000000
vn -0.000000 -1.000000 -0.000000
vn -0.000000 -1.000000 -0.000000
vn -0.000000 -1.000000 -0.000000
vn 1.000000 0.000000 0.000000
vn 1.000000 0.000000 0.000000
vn 1.000000 0.000000 0.000000
vn 1.000000 0.000000 0.000000
vn 0.000000 0.000000 -1.000000
vn 0.000000 0.000000 -1.000000
vn 0.000000 0.000000 -1.000000
vn 0.000000 0.000000 -1.000000
vn 0.000000 0.000000 -1.000000
vn 0.000000 0.000000 -1.000000
vn 0.000000 0.000000 -1.000000
vn 0.000000 0.000000 -1.000000
vn -1.000000 -0.000000 -0.000000
vn -1.000000 -0.000000 -0.000000
vn -1.000000 -0.000000 -0.000000
vn -1.000000 -0.000000 -0.000000
vn 0.000000 -1.000000 0.000000
vn 0.000000 -1.000000 0.000000
vn 0.000000 -1.000000 0.000000
vn 0.000000 -1.000000 0.000000
vn 0.000000 0.000000 -1.000000
vn 0.000000 0.000000 -1.000000
vn 0.000000 0.000000 -1.000000
vn 0.000000 0.000000 -1.000000
vn 0.000000 0.000000 -1.000000
vn 0.000000 0.000000 -1.000000
vn 0.000000 0.000000 -1.000000
vn 0.000000 0.000000 -1.000000
vn 0.000000 0.000000 -1.000000
vn 0.000000 0.000000 -1.000000
vn 1.000000 -0.000000 0.000000
vn 1.000000 -0.000000 0.000000
vn 1.000000 -0.000000 0.000000
vn 1.000000 -0.000000 0.000000
vn 0.000000 1.000000 0.000000
vn 0.000000 1.000000 0.000000
vn 0.000000 1.000000 0.000000
vn 0.000000 1.000000 0.000000
vn 0.000000 0.000000 -1.000000
vn 0.000000 0.000000 -1.000000
vn 0.000000 0.000000 -1.000000
vn 0.000000 0.000000 -1.000000
vn 0.000000 0.000000 -1.000000
vn 0.000000 0.000000 -1.000000
vn -0.000000 1.000000 0.000000
vn -0.000000 1.000000 0.000000
vn -0.000000 1.000000 0.000000
vn -0.000000 1.000000 0.000000
vn -1.000000 0.000000 0.000000
vn -1.000000 0.000000 0.000000
vn -1.000000 0.000000 0.000000
vn -1.000000 0.000000 0.000000
vn 0.000000 0.000000 -1.000000
vn 0.000000 0.000000 -1.000000
vn 0.000000 0.000000 -1.000000
vn 0.000000 0.000000 -1.000000
vn 0.000000 -1.000000 0.000000
vn 0.000000 -1.000000 0.000000
vn 1.000000 0.000000 0.000000
vn 1.000000 0.000000 0.000000
vn -1.000000 -0.000000 -0.000000
vn -1.000000 -0.000000 -0.000000
vn 0.000000 1.000000 0.000000
vn 0.000000 1.000000 0.000000
vn 1.000000 0.000000 0.000000
vn 1.000000 0.000000 0.000000
vn 1.000000 0.000000 0.000000
vn 1.000000 0.000000 0.000000
vn 1.000000 0.000000 0.000000
vn 1.000000 0.000000 0.000000
vn 1.000000 0.000000 0.000000
vn 1.000000 0.000000 0.000000
vn -0.000000 1.000000 0.000000
vn -0.000000 1.000000 0.000000
vn -0.000000 1.000000 0.000000
vn -0.000000 1.000000 0.000000
vn -0.000000 1.000000 0.000000
vn -0.000000 1.000000 0.000000
vn -0.000000 1.000000 0.000000
vn -0.000000 1.000000 0.000000
vn -1.000000 0.000000 0.000000
vn -1.000000 0.000000 0.000000
vn -1.000000 0.000000 0.000000
vn -1.000000 0.000000 0.000000
vn -1.000000 0.000000 0.000000
vn -1.000000 0.000000 0.000000
vn -1.000000 0.000000 0.000000
vn -1.000000 0.000000 0.000000
vn -0.000000 -1.000000 -0.000000
vn -0.000000 -1.000000 -0.000000
vn -0.000000 -1.000000 -0.000000
vn -0.000000 -1.000000 -0.000000
vn -0.000000 -1.000000 -0.000000
vn -0.000000 -1.000000 -0.000000
vn -0.000000 -1.000000 -0.000000
vn -0.000000 -1.000000 -0.000000
usemtl Steel_-_Satin
f 1/1/1 2/2/2 4/3/3
f 4/3/3 2/2/2 3/4/4
f 5/5/5 6/6/6 8/7/7
f 8/7/7 6/6/6 7/8/8
f 9/9/9 10/10/10 12/11/11
f 12/11/11 10/10/10 11/12/12
f 13/13/13 9/14/14 14/15/15
f 14/15/15 9/14/14 12/16/16
f 15/17/17 14/18/18 11/19/19
f 11/19/19 14/18/18 12/20/20
f 10/21/21 9/22/22 17/23/23
f 17/23/23 9/22/22 16/24/24
f 18/25/25 19/26/26 21/27/27
f 21/27/27 19/26/26 20/28/28
f 22/29/29 18/30/30 23/31/31
f 23/31/31 18/30/30 21/32/32
f 23/33/33 21/34/34 24/35/35
f 24/35/35 21/34/34 20/36/36
f 18/37/37 22/38/38 26/39/39
f 26/39/39 22/38/38 25/40/40
f 13/41/41 19/42/42 9/43/22
f 9/43/22 19/42/42 18/44/37
f 16/45/43 27/46/44 29/47/45
f 29/47/45 27/46/44 28/48/46
f 17/49/47 16/50/48 30/51/49
f 30/51/49 16/50/48 29/52/50
f 30/53/51 29/54/52 31/55/53
f 31/55/53 29/54/52 28/56/54
f 16/57/24 26/58/39 27/59/55
f 27/59/55 26/58/39 32/60/56
f 26/61/57 25/62/58 34/63/59
f 34/63/59 25/62/58 33/64/60
f 32/65/61 26/66/62 35/67/63
f 35/67/63 26/66/62 34/68/64
f 34/69/65 33/70/66 35/71/67
f 35/71/67 33/70/66 36/72/68
f 9/73/9 18/74/30 3/75/69
f 3/75/69 18/74/30 4/76/70
f 16/77/43 9/78/14 2/79/71
f 2/79/71 9/78/14 3/80/72
f 18/81/25 26/82/62 4/83/73
f 4/83/73 26/82/62 1/84/74
f 26/85/57 16/86/48 1/87/75
f 1/87/75 16/86/48 2/88/76
f 7/89/77 6/90/78 25/91/79
f 25/91/79 6/90/78 36/92/80
f 25/91/79 36/92/80 33/93/81
f 25/91/79 22/94/82 7/89/77
f 7/89/77 22/94/82 24/95/83
f 24/95/83 22/94/82 23/96/84
f 8/97/85 7/98/86 19/99/87
f 19/99/87 7/98/86 24/100/88
f 19/99/87 24/100/88 20/101/89
f 19/99/87 13/102/90 8/97/85
f 8/97/85 13/102/90 15/103/91
f 15/103/91 13/102/90 14/104/92
f 15/105/93 10/106/94 8/107/95
f 8/107/95 10/106/94 17/108/96
f 8/107/95 17/108/96 5/109/97
f 5/109/97 17/108/96 31/110/98
f 31/110/98 17/108/96 30/111/99
f 15/105/93 11/112/100 10/106/94
f 31/113/101 27/114/102 5/115/103
f 5/115/103 27/114/102 32/116/104
f 5/115/103 32/116/104 6/117/105
f 6/117/105 32/116/104 36/118/106
f 36/118/106 32/116/104 35/119/107
f 31/113/101 28/120/108 27/114/102
# 36 vertices
# 120 texture params
# 108 normals
# 68 facets

# 1 groups
