# WaveFront *.obj file (generated by Autodesk ATF)

mtllib Shelter v4.mtl

g Body3

v 4.500000 4.999900 0.000000
v -4.500000 4.999900 0.000000
v -4.500000 5.000000 0.000000
v 4.500000 5.000000 0.000000
v 4.500000 5.000000 -1.900000
v -4.500000 5.000000 -1.900000
v -5.000000 5.000000 -1.900000
v -5.000000 5.000000 0.901000
v 5.000000 5.000000 0.901000
v 5.000000 5.000000 -1.900000
v -4.999990 4.500000 0.000000
v -4.999990 -4.500000 0.000000
v -5.000000 -4.500000 0.000000
v -5.000000 4.500000 0.000000
v -5.000000 4.500000 -1.900000
v -5.000000 -4.500000 -1.900000
v -5.000000 -5.000000 -1.900000
v -5.000000 -5.000000 0.901000
v -4.500000 -4.999900 0.000000
v 4.500000 -4.999900 0.000000
v 4.500000 -5.000000 0.000000
v -4.500000 -5.000000 0.000000
v -4.500000 -5.000000 -1.900000
v 4.500000 -5.000000 -1.900000
v 5.000000 -5.000000 -1.900000
v 5.000000 -5.000000 0.901000
v 4.999900 -4.500000 0.000000
v 4.999900 4.500000 0.000000
v 5.000000 4.500000 0.000000
v 5.000000 -4.500000 0.000000
v 5.000000 -4.500000 -1.900000
v 5.000000 4.500000 -1.900000
v -4.950000 -4.500000 0.900000
v -4.950000 -4.990000 0.900000
v -4.950000 -4.990000 -1.900000
v -4.950000 -4.500000 -1.900000
v -4.990000 4.999900 0.900000
v -4.990000 4.500000 0.900000
v -4.990000 4.500000 -1.900000
v -4.990000 4.999900 -1.900000
v -4.500000 4.999000 0.901000
v -4.500000 4.999000 0.900000
v -4.500000 4.999900 0.900000
v -4.500000 4.999900 0.901000
v -4.500000 -4.990000 -1.900000
v 4.500000 4.999900 -1.900000
v 4.999900 -4.500000 -1.900000
v -4.500000 4.999900 -1.900000
v 4.999900 4.999900 -1.900000
v 4.999900 4.500000 -1.900000
v 4.999900 -4.999900 -1.900000
v 4.500000 -4.999900 -1.900000
v 4.999900 4.999900 0.901000
v 4.999900 -4.999900 0.901000
v -4.500000 -4.999900 0.901000
v -4.500000 -4.999000 0.901000
v 4.999000 -4.999000 0.901000
v 4.999000 4.999000 0.901000
v -4.999900 4.500000 0.901000
v -4.999900 -4.500000 0.901000
v -4.999990 -4.500000 0.901000
v -4.999990 4.500000 0.901000
v -4.500000 -4.990000 0.900000
v -4.999900 4.500000 0.900000
v 4.999000 4.999000 0.900000
v 4.999000 -4.999000 0.900000
v -4.500000 -4.999000 0.900000
v -4.999900 -4.500000 0.900000
vt -4.500000 4.999900 0.000000
vt 4.500000 4.999900 0.000000
vt -4.500000 5.000000 0.000000
vt 4.500000 5.000000 0.000000
vt 9.500000 2.300000 0.000000
vt 9.500000 0.400000 0.000000
vt 10.000000 2.300000 0.000000
vt 10.000000 -0.501000 0.000000
vt 0.000000 -0.501000 0.000000
vt 0.500000 0.400000 0.000000
vt 0.000000 2.300000 0.000000
vt 0.500000 2.300000 0.000000
vt 4.999990 -4.500000 0.000000
vt 5.000000 -4.500000 0.000000
vt 4.999990 4.500000 0.000000
vt 5.000000 4.500000 0.000000
vt 9.500000 2.300000 0.000000
vt 9.500000 0.400000 0.000000
vt 10.000000 2.300000 0.000000
vt 10.000000 -0.501000 0.000000
vt 0.500000 0.400000 0.000000
vt 0.000000 -0.501000 0.000000
vt 0.000000 2.300000 0.000000
vt 0.500000 2.300000 0.000000
vt 4.500000 -4.999900 0.000000
vt -4.500000 -4.999900 0.000000
vt 4.500000 -5.000000 0.000000
vt -4.500000 -5.000000 0.000000
vt 9.500000 2.300000 0.000000
vt 9.500000 0.400000 0.000000
vt 10.000000 2.300000 0.000000
vt 10.000000 -0.501000 0.000000
vt 0.500000 0.400000 0.000000
vt 0.000000 -0.501000 0.000000
vt 0.000000 2.300000 0.000000
vt 0.500000 2.300000 0.000000
vt -4.999900 4.500000 0.000000
vt -5.000000 4.500000 0.000000
vt -4.999900 -4.500000 0.000000
vt -5.000000 -4.500000 0.000000
vt 9.500000 2.300000 0.000000
vt 9.500000 0.400000 0.000000
vt 10.000000 2.300000 0.000000
vt 10.000000 -0.501000 0.000000
vt 0.000000 -0.501000 0.000000
vt 0.500000 0.400000 0.000000
vt 0.000000 2.300000 0.000000
vt 0.500000 2.300000 0.000000
vt -0.001000 0.040000 0.000000
vt -2.801000 0.040000 0.000000
vt -0.001000 -0.450000 0.000000
vt -2.801000 -0.450000 0.000000
vt -2.900000 0.049900 0.000000
vt -2.900000 -0.450000 0.000000
vt -0.100000 0.049900 0.000000
vt -0.100000 -0.450000 0.000000
vt 0.000000 0.049000 0.000000
vt 0.001000 0.049000 0.000000
vt 0.000000 0.049900 0.000000
vt 0.001000 0.049900 0.000000
vt 0.200000 0.250000 0.000000
vt 0.200000 -0.240000 0.000000
vt 0.250000 0.250000 0.000000
vt 0.250000 -0.250000 0.000000
vt -0.250000 -0.250000 0.000000
vt -0.250000 -0.240000 0.000000
vt 9.499900 0.500000 0.000000
vt 9.500000 0.500000 0.000000
vt 9.499900 2.400000 0.000000
vt 9.500000 2.400000 0.000000
vt 9.499900 2.400000 0.000000
vt 9.499900 0.500000 0.000000
vt 9.500000 2.400000 0.000000
vt 9.500000 0.500000 0.000000
vt -0.499900 0.500000 0.000000
vt -0.499900 2.400000 0.000000
vt -0.500000 0.500000 0.000000
vt -0.500000 2.400000 0.000000
vt 0.250000 0.249900 0.000000
vt 0.250000 0.250000 0.000000
vt -0.249900 0.249900 0.000000
vt -0.250000 0.250000 0.000000
vt -0.250000 -0.250000 0.000000
vt -0.249900 -0.250000 0.000000
vt -0.249900 0.250000 0.000000
vt -0.250000 0.250000 0.000000
vt -0.249900 -0.249900 0.000000
vt -0.250000 -0.250000 0.000000
vt 0.250000 -0.250000 0.000000
vt 0.250000 -0.249900 0.000000
vt 0.240000 -0.250000 0.000000
vt 0.250000 -0.250000 0.000000
vt 0.240000 0.249900 0.000000
vt 0.250000 0.250000 0.000000
vt -0.250000 0.250000 0.000000
vt -0.250000 0.249900 0.000000
vt -9.499900 -1.000000 0.000000
vt -9.499900 0.900000 0.000000
vt -9.500000 -1.000000 0.000000
vt -9.500000 0.900000 0.000000
vt 0.000100 0.900000 0.000000
vt 0.000000 0.900000 0.000000
vt 0.000100 -1.000000 0.000000
vt 0.000000 -1.000000 0.000000
vt -4.500000 4.999900 0.000000
vt -5.000000 5.000000 0.000000
vt -4.500000 4.999000 0.000000
vt -4.999900 4.500000 0.000000
vt -4.999900 -4.500000 0.000000
vt 5.000000 5.000000 0.000000
vt 4.999900 4.999900 0.000000
vt 5.000000 -5.000000 0.000000
vt 4.999900 -4.999900 0.000000
vt -4.500000 -4.999900 0.000000
vt -5.000000 -5.000000 0.000000
vt -4.500000 -4.999000 0.000000
vt 4.999000 -4.999000 0.000000
vt 4.999000 4.999000 0.000000
vt -4.999990 -4.500000 0.000000
vt -4.999990 4.500000 0.000000
vt 2.400000 0.000000 0.000000
vt 2.400000 0.499900 0.000000
vt 0.500000 0.000000 0.000000
vt -0.401000 0.499900 0.000000
vt -0.400000 -9.000000 0.000000
vt -0.401000 -9.000000 0.000000
vt 0.500000 -9.000000 0.000000
vt -0.400000 -9.490000 0.000000
vt 2.400000 -9.490000 0.000000
vt 2.400000 -9.000000 0.000000
vt 2.900000 0.450000 0.000000
vt 0.100000 0.450000 0.000000
vt 2.900000 0.000000 0.000000
vt 0.100000 0.000000 0.000000
vt 4.999900 4.500000 0.000000
vt 4.990000 4.500000 0.000000
vt 4.999900 -4.500000 0.000000
vt 4.950000 -4.500000 0.000000
vt 4.500000 4.999000 0.000000
vt -4.999000 -4.999000 0.000000
vt -4.999000 4.999000 0.000000
vt 4.990000 4.999900 0.000000
vt 4.500000 4.999900 0.000000
vt 4.500000 -4.999000 0.000000
vt 4.500000 -4.990000 0.000000
vt 4.950000 -4.990000 0.000000
vt -0.400000 9.499000 0.000000
vt -0.401000 9.499000 0.000000
vt -0.400000 -0.499000 0.000000
vt -0.401000 -0.499000 0.000000
vt -2.400000 0.000000 0.000000
vt -2.400000 -0.499900 0.000000
vt -0.500000 0.000000 0.000000
vt 0.401000 -0.499900 0.000000
vt -0.500000 9.000000 0.000000
vt 0.401000 9.499900 0.000000
vt -2.400000 9.499900 0.000000
vt -2.400000 9.000000 0.000000
vt -0.400000 9.499000 0.000000
vt -0.401000 9.499000 0.000000
vt -0.400000 0.000000 0.000000
vt -0.401000 0.000000 0.000000
vt -0.000000 0.000000 0.000000
vt -0.000000 0.000900 0.000000
vt -0.001000 0.000000 0.000000
vt -0.901000 0.000900 0.000000
vt -0.001000 -0.009000 0.000000
vt -2.801000 -0.009000 0.000000
vt -2.801000 0.001000 0.000000
vt -0.901000 0.001000 0.000000
vt -0.500000 0.000000 0.000000
vt 0.401000 0.000000 0.000000
vt -0.500000 9.000000 0.000000
vt 0.401000 9.499900 0.000000
vt -2.400000 9.499900 0.000000
vt -2.400000 9.000000 0.000000
vt 0.400000 -9.000000 0.000000
vt 0.401000 -9.000000 0.000000
vt 0.400000 0.499000 0.000000
vt 0.401000 0.499000 0.000000
vt -1.101000 0.000090 0.000000
vt -1.100000 0.000000 0.000000
vt -0.200000 0.000090 0.000000
vt -1.100000 -0.049900 0.000000
vt 1.700000 -0.049900 0.000000
vt -1.101000 0.000000 0.000000
vt 1.700000 0.000100 0.000000
vt -0.200000 0.000100 0.000000
vt 0.400000 -9.000000 0.000000
vt 0.401000 -9.000000 0.000000
vt 0.400000 0.000000 0.000000
vt 0.401000 0.000000 0.000000
vt -0.000000 0.000000 0.000000
vt -0.000000 0.000090 0.000000
vt -0.001000 0.000000 0.000000
vt -0.901000 0.000090 0.000000
vt -0.001000 -0.009900 0.000000
vt -2.801000 -0.009900 0.000000
vt -2.801000 0.000100 0.000000
vt -0.901000 0.000100 0.000000
vt 0.500000 0.000000 0.000000
vt -0.401000 0.000000 0.000000
vt 0.500000 -9.000000 0.000000
vt -0.401000 -9.000000 0.000000
vn -0.000000 -0.000000 -1.000000
vn -0.000000 -0.000000 -1.000000
vn -0.000000 -0.000000 -1.000000
vn -0.000000 -0.000000 -1.000000
vn 0.000000 1.000000 0.000000
vn 0.000000 1.000000 0.000000
vn 0.000000 1.000000 0.000000
vn 0.000000 1.000000 0.000000
vn 0.000000 1.000000 0.000000
vn 0.000000 1.000000 0.000000
vn 0.000000 1.000000 0.000000
vn 0.000000 1.000000 0.000000
vn -0.000000 -0.000000 -1.000000
vn -0.000000 -0.000000 -1.000000
vn -0.000000 -0.000000 -1.000000
vn -0.000000 -0.000000 -1.000000
vn -1.000000 0.000000 0.000000
vn -1.000000 0.000000 0.000000
vn -1.000000 0.000000 0.000000
vn -1.000000 0.000000 0.000000
vn -1.000000 0.000000 0.000000
vn -1.000000 0.000000 0.000000
vn -1.000000 0.000000 0.000000
vn -1.000000 0.000000 0.000000
vn -0.000000 -0.000000 -1.000000
vn -0.000000 -0.000000 -1.000000
vn -0.000000 -0.000000 -1.000000
vn -0.000000 -0.000000 -1.000000
vn -0.000000 -1.000000 -0.000000
vn -0.000000 -1.000000 -0.000000
vn -0.000000 -1.000000 -0.000000
vn -0.000000 -1.000000 -0.000000
vn -0.000000 -1.000000 -0.000000
vn -0.000000 -1.000000 -0.000000
vn -0.000000 -1.000000 -0.000000
vn -0.000000 -1.000000 -0.000000
vn -0.000000 -0.000000 -1.000000
vn -0.000000 -0.000000 -1.000000
vn -0.000000 -0.000000 -1.000000
vn -0.000000 -0.000000 -1.000000
vn 1.000000 0.000000 0.000000
vn 1.000000 0.000000 0.000000
vn 1.000000 0.000000 0.000000
vn 1.000000 0.000000 0.000000
vn 1.000000 0.000000 0.000000
vn 1.000000 0.000000 0.000000
vn 1.000000 0.000000 0.000000
vn 1.000000 0.000000 0.000000
vn 1.000000 -0.000000 -0.000000
vn 1.000000 -0.000000 -0.000000
vn 1.000000 -0.000000 -0.000000
vn 1.000000 -0.000000 -0.000000
vn 1.000000 -0.000000 -0.000000
vn 1.000000 -0.000000 -0.000000
vn 1.000000 -0.000000 -0.000000
vn 1.000000 -0.000000 -0.000000
vn 1.000000 -0.000000 0.000000
vn 1.000000 -0.000000 0.000000
vn 1.000000 -0.000000 0.000000
vn 1.000000 -0.000000 0.000000
vn -0.000000 -0.000000 -1.000000
vn -0.000000 -0.000000 -1.000000
vn -0.000000 -0.000000 -1.000000
vn -0.000000 -0.000000 -1.000000
vn -0.000000 -0.000000 -1.000000
vn -0.000000 -0.000000 -1.000000
vn -1.000000 -0.000000 -0.000000
vn -1.000000 -0.000000 -0.000000
vn -1.000000 -0.000000 -0.000000
vn -1.000000 -0.000000 -0.000000
vn 0.000000 1.000000 0.000000
vn 0.000000 1.000000 0.000000
vn 0.000000 1.000000 0.000000
vn 0.000000 1.000000 0.000000
vn 1.000000 0.000000 0.000000
vn 1.000000 0.000000 0.000000
vn 1.000000 0.000000 0.000000
vn 1.000000 0.000000 0.000000
vn -0.000000 -0.000000 -1.000000
vn -0.000000 -0.000000 -1.000000
vn -0.000000 -0.000000 -1.000000
vn -0.000000 -0.000000 -1.000000
vn -0.000000 -0.000000 -1.000000
vn -0.000000 -0.000000 -1.000000
vn -0.000000 -0.000000 -1.000000
vn -0.000000 -0.000000 -1.000000
vn -0.000000 -0.000000 -1.000000
vn -0.000000 -0.000000 -1.000000
vn -0.000000 -0.000000 -1.000000
vn -0.000000 -0.000000 -1.000000
vn -0.000000 -0.000000 -1.000000
vn -0.000000 -0.000000 -1.000000
vn -0.000000 -0.000000 -1.000000
vn -0.000000 -0.000000 -1.000000
vn -0.000000 -0.000000 -1.000000
vn -0.000000 -0.000000 -1.000000
vn -0.000000 -1.000000 -0.000000
vn -0.000000 -1.000000 -0.000000
vn -0.000000 -1.000000 -0.000000
vn -0.000000 -1.000000 -0.000000
vn -1.000000 0.000000 0.000000
vn -1.000000 0.000000 0.000000
vn -1.000000 0.000000 0.000000
vn -1.000000 0.000000 0.000000
vn -0.000000 -0.000000 1.000000
vn -0.000000 -0.000000 1.000000
vn -0.000000 -0.000000 1.000000
vn -0.000000 -0.000000 1.000000
vn -0.000000 -0.000000 1.000000
vn -0.000000 -0.000000 1.000000
vn -0.000000 -0.000000 1.000000
vn -0.000000 -0.000000 1.000000
vn -0.000000 -0.000000 1.000000
vn -0.000000 -0.000000 1.000000
vn -0.000000 -0.000000 1.000000
vn -0.000000 -0.000000 1.000000
vn -0.000000 -0.000000 1.000000
vn -0.000000 -0.000000 1.000000
vn -0.000000 -0.000000 1.000000
vn -0.000000 -0.000000 1.000000
vn -0.000000 -1.000000 -0.000000
vn -0.000000 -1.000000 -0.000000
vn -0.000000 -1.000000 -0.000000
vn -0.000000 -1.000000 -0.000000
vn -0.000000 -1.000000 -0.000000
vn -0.000000 -1.000000 -0.000000
vn -0.000000 -1.000000 -0.000000
vn -0.000000 -1.000000 -0.000000
vn -0.000000 -1.000000 -0.000000
vn -0.000000 -1.000000 -0.000000
vn -0.000000 1.000000 -0.000000
vn -0.000000 1.000000 -0.000000
vn -0.000000 1.000000 -0.000000
vn -0.000000 1.000000 -0.000000
vn -0.000000 -0.000000 -1.000000
vn -0.000000 -0.000000 -1.000000
vn -0.000000 -0.000000 -1.000000
vn -0.000000 -0.000000 -1.000000
vn -0.000000 -0.000000 -1.000000
vn -0.000000 -0.000000 -1.000000
vn -0.000000 -0.000000 -1.000000
vn -0.000000 -0.000000 -1.000000
vn -0.000000 -0.000000 -1.000000
vn -0.000000 -0.000000 -1.000000
vn -0.000000 -0.000000 -1.000000
vn -0.000000 -0.000000 -1.000000
vn 1.000000 0.000000 0.000000
vn 1.000000 0.000000 0.000000
vn 1.000000 0.000000 0.000000
vn 1.000000 0.000000 0.000000
vn -1.000000 -0.000000 -0.000000
vn -1.000000 -0.000000 -0.000000
vn -1.000000 -0.000000 -0.000000
vn -1.000000 -0.000000 -0.000000
vn -1.000000 -0.000000 -0.000000
vn -1.000000 -0.000000 -0.000000
vn -1.000000 -0.000000 -0.000000
vn -1.000000 -0.000000 -0.000000
vn 0.000000 -1.000000 0.000000
vn 0.000000 -1.000000 0.000000
vn 0.000000 -1.000000 0.000000
vn 0.000000 -1.000000 0.000000
vn 1.000000 0.000000 0.000000
vn 1.000000 0.000000 0.000000
vn 1.000000 0.000000 0.000000
vn 1.000000 0.000000 0.000000
vn 1.000000 0.000000 0.000000
vn 1.000000 0.000000 0.000000
vn 1.000000 0.000000 0.000000
vn 1.000000 0.000000 0.000000
vn -0.000000 1.000000 -0.000000
vn -0.000000 1.000000 -0.000000
vn -0.000000 1.000000 -0.000000
vn -0.000000 1.000000 -0.000000
vn -0.000000 1.000000 -0.000000
vn -0.000000 1.000000 -0.000000
vn 0.000000 1.000000 0.000000
vn 0.000000 1.000000 0.000000
vn 0.000000 1.000000 0.000000
vn 0.000000 1.000000 0.000000
vn 0.000000 1.000000 -0.000000
vn 0.000000 1.000000 -0.000000
vn 0.000000 1.000000 -0.000000
vn 0.000000 1.000000 -0.000000
vn 0.000000 1.000000 -0.000000
vn 0.000000 1.000000 -0.000000
vn 0.000000 1.000000 -0.000000
vn 0.000000 1.000000 -0.000000
vn -1.000000 0.000000 0.000000
vn -1.000000 0.000000 0.000000
vn -1.000000 0.000000 0.000000
vn -1.000000 0.000000 0.000000
vn -0.000000 -1.000000 -0.000000
vn -0.000000 -1.000000 -0.000000
vn -0.000000 -1.000000 -0.000000
vn -0.000000 -1.000000 -0.000000
vn -0.000000 -1.000000 -0.000000
vn -0.000000 -1.000000 -0.000000
vn -0.000000 -1.000000 -0.000000
vn -0.000000 -1.000000 -0.000000
vn 1.000000 -0.000000 -0.000000
vn 1.000000 -0.000000 -0.000000
vn 1.000000 -0.000000 -0.000000
vn 1.000000 -0.000000 -0.000000
usemtl Steel_-_Satin
f 1/1/1 2/2/2 4/3/3
f 4/3/3 2/2/2 3/4/4
f 5/5/5 4/6/6 10/7/7
f 10/7/7 4/6/6 9/8/8
f 9/8/8 4/6/6 8/9/9
f 8/9/9 4/6/6 3/10/10
f 8/9/9 3/10/10 7/11/11
f 7/11/11 3/10/10 6/12/12
f 12/13/13 13/14/14 11/15/15
f 11/15/15 13/14/14 14/16/16
f 15/17/17 14/18/18 7/19/19
f 7/19/19 14/18/18 8/20/20
f 8/20/20 14/18/18 13/21/21
f 8/20/20 13/21/21 18/22/22
f 18/22/22 13/21/21 17/23/23
f 17/23/23 13/21/21 16/24/24
f 19/25/25 20/26/26 22/27/27
f 22/27/27 20/26/26 21/28/28
f 23/29/29 22/30/30 17/31/31
f 17/31/31 22/30/30 18/32/32
f 18/32/32 22/30/30 21/33/33
f 18/32/32 21/33/33 26/34/34
f 26/34/34 21/33/33 25/35/35
f 25/35/35 21/33/33 24/36/36
f 28/37/37 29/38/38 27/39/39
f 27/39/39 29/38/38 30/40/40
f 31/41/41 30/42/42 25/43/43
f 25/43/43 30/42/42 26/44/44
f 26/44/44 30/42/42 9/45/45
f 9/45/45 30/42/42 29/46/46
f 9/45/45 29/46/46 10/47/47
f 10/47/47 29/46/46 32/48/48
f 34/49/49 35/50/50 33/51/51
f 33/51/51 35/50/50 36/52/52
f 37/53/53 38/54/54 40/55/55
f 40/55/55 38/54/54 39/56/56
f 41/57/57 42/58/58 44/59/59
f 44/59/59 42/58/58 43/60/60
f 36/61/61 35/62/62 16/63/63
f 16/63/63 35/62/62 17/64/64
f 17/64/64 35/62/62 23/65/65
f 23/65/65 35/62/62 45/66/66
f 1/67/67 4/68/68 46/69/69
f 46/69/69 4/68/68 5/70/70
f 47/71/71 27/72/72 31/73/73
f 31/73/73 27/72/72 30/74/74
f 2/75/75 48/76/76 3/77/77
f 3/77/77 48/76/76 6/78/78
f 46/79/79 5/80/80 49/81/81
f 49/81/81 5/80/80 10/82/82
f 49/81/81 10/82/82 32/83/83
f 32/83/83 50/84/84 49/81/81
f 47/85/85 31/86/86 51/87/87
f 51/87/87 31/86/86 25/88/88
f 51/87/87 25/88/88 24/89/89
f 24/89/89 52/90/90 51/87/87
f 39/91/91 15/92/92 40/93/93
f 40/93/93 15/92/92 7/94/94
f 40/93/93 7/94/94 6/95/95
f 6/95/95 48/96/96 40/93/93
f 28/97/97 50/98/98 29/99/99
f 29/99/99 50/98/98 32/100/100
f 52/101/101 24/102/102 20/103/103
f 20/103/103 24/102/102 21/104/104
f 44/105/105 8/106/106 41/107/107
f 41/107/107 8/106/106 59/108/108
f 41/107/107 59/108/108 60/109/109
f 8/106/106 44/105/105 9/110/110
f 9/110/110 44/105/105 53/111/111
f 9/110/110 53/111/111 26/112/112
f 26/112/112 53/111/111 54/113/113
f 26/112/112 54/113/113 55/114/114
f 26/112/112 55/114/114 18/115/115
f 18/115/115 55/114/114 56/116/116
f 18/115/115 56/116/116 60/109/109
f 60/109/109 56/116/116 41/107/107
f 56/116/116 57/117/117 41/107/107
f 41/107/107 57/117/117 58/118/118
f 60/109/109 61/119/119 18/115/115
f 18/115/115 61/119/119 62/120/120
f 18/115/115 62/120/120 8/106/106
f 8/106/106 62/120/120 59/108/108
f 46/121/121 49/122/122 1/123/123
f 1/123/123 49/122/122 53/124/124
f 1/123/123 53/124/124 43/125/125
f 43/125/125 53/124/124 44/126/126
f 1/123/123 43/125/125 2/127/127
f 2/127/127 43/125/125 37/128/128
f 2/127/127 37/128/128 40/129/129
f 40/129/129 48/130/130 2/127/127
f 63/131/131 45/132/132 34/133/133
f 34/133/133 45/132/132 35/134/134
f 64/135/135 38/136/136 68/137/137
f 68/137/137 38/136/136 33/138/138
f 33/138/138 38/136/136 42/139/139
f 33/138/138 42/139/139 66/140/140
f 66/140/140 42/139/139 65/141/141
f 38/136/136 37/142/142 42/139/139
f 42/139/139 37/142/142 43/143/143
f 67/144/144 63/145/145 66/140/140
f 66/140/140 63/145/145 33/138/138
f 63/145/145 34/146/146 33/138/138
f 65/147/147 58/148/148 66/149/149
f 66/149/149 58/148/148 57/150/150
f 47/151/151 51/152/152 27/153/153
f 27/153/153 51/152/152 54/154/154
f 27/153/153 54/154/154 28/155/155
f 28/155/155 54/154/154 53/156/156
f 28/155/155 53/156/156 49/157/157
f 49/157/157 50/158/158 28/155/155
f 66/159/159 57/160/160 67/161/161
f 67/161/161 57/160/160 56/162/162
f 56/163/163 55/164/164 67/165/165
f 67/165/165 55/164/164 19/166/166
f 67/165/165 19/166/166 63/167/167
f 63/167/167 19/166/166 45/168/168
f 45/168/168 19/166/166 23/169/169
f 23/169/169 19/166/166 22/170/170
f 19/171/171 55/172/172 20/173/173
f 20/173/173 55/172/172 54/174/174
f 20/173/173 54/174/174 51/175/175
f 51/175/175 52/176/176 20/173/173
f 42/177/177 41/178/178 65/179/179
f 65/179/179 41/178/178 58/180/180
f 61/181/181 68/182/182 12/183/183
f 12/183/183 68/182/182 33/184/184
f 12/183/183 33/184/184 36/185/185
f 61/181/181 60/186/186 68/182/182
f 36/185/185 16/187/187 12/183/183
f 12/183/183 16/187/187 13/188/188
f 68/189/189 60/190/190 64/191/191
f 64/191/191 60/190/190 59/192/192
f 59/193/193 62/194/194 64/195/195
f 64/195/195 62/194/194 11/196/196
f 64/195/195 11/196/196 38/197/197
f 38/197/197 11/196/196 39/198/198
f 39/198/198 11/196/196 15/199/199
f 15/199/199 11/196/196 14/200/200
f 11/201/201 62/202/202 12/203/203
f 12/203/203 62/202/202 61/204/204
# 68 vertices
# 204 texture params
# 204 normals
# 140 facets

# 1 groups
