# WaveFront *.obj file (generated by Autodesk ATF)

mtllib Shelter v2.mtl

g Body3

v 4.999000 4.500000 1.000000
v 4.950000 4.500000 1.000000
v 4.950000 4.500000 -2.000000
v 5.000000 4.500000 -2.000000
v 5.000000 4.500000 -0.200000
v 4.999000 4.500000 -0.200000
v -4.950000 4.500000 1.000000
v -4.999900 4.500000 1.000000
v -4.999900 4.500000 -0.200000
v -5.000000 4.500000 -0.200000
v -5.000000 4.500000 -2.000000
v -4.950000 4.500000 -2.000000
v -4.950000 4.950000 -2.000000
v -4.950000 4.950000 1.000000
v -4.500000 4.950000 -2.000000
v -4.500000 4.950000 1.000000
v 4.500000 4.950000 1.000000
v 4.500000 4.950000 -2.000000
v 4.950000 4.950000 -2.000000
v 4.950000 4.950000 1.000000
v 4.500000 4.999000 1.000000
v 4.500000 4.999000 -0.200000
v 4.500000 5.000000 -0.200000
v 4.500000 5.000000 -2.000000
v -4.500000 5.000000 -2.000000
v -4.500000 5.000000 -0.200000
v -4.500000 4.999000 -0.200000
v -4.500000 4.999000 1.000000
v 5.000000 5.000000 -2.000000
v -5.000000 5.000000 -2.000000
v -5.000000 5.000000 1.500000
v 5.000000 5.000000 1.500000
v 4.950000 -4.500000 -2.000000
v 4.950000 -4.950000 -2.000000
v 4.950000 -4.950000 1.000000
v 4.950000 -4.500000 1.000000
v 4.500000 -4.950000 -2.000000
v 4.500000 -4.950000 1.000000
v 4.999000 -4.500000 -0.200000
v 5.000000 -4.500000 -0.200000
v 5.000000 -4.500000 -2.000000
v 4.999000 -4.500000 1.000000
v 4.500000 -4.999000 1.000000
v 4.500000 -5.000000 -2.000000
v 4.500000 -5.000000 -0.200000
v 4.500000 -4.999000 -0.200000
v 5.000000 -5.000000 -2.000000
v -4.950000 -4.950000 -2.000000
v -4.950000 -4.500000 -2.000000
v -4.950000 -4.500000 1.000000
v -4.950000 -4.950000 1.000000
v -4.500000 -4.950000 -2.000000
v -4.500000 -4.950000 1.000000
v -4.500000 -5.000000 -2.000000
v -5.000000 -5.000000 -2.000000
v -5.000000 -4.500000 -2.000000
v -4.500000 -4.999000 -0.200000
v -4.500000 -5.000000 -0.200000
v -4.500000 -4.999000 1.000000
v -4.999900 -4.500000 1.000000
v -5.000000 -4.500000 -0.200000
v -4.999900 -4.500000 -0.200000
v 5.000000 -5.000000 1.500000
v -5.000000 -5.000000 1.500000
vt -9.499000 -2.000000 0.000000
vt -9.450000 -2.000000 0.000000
vt -9.499000 -0.800000 0.000000
vt -9.450000 1.000000 0.000000
vt -9.500000 1.000000 0.000000
vt -9.500000 -0.800000 0.000000
vt 0.499900 -2.000000 0.000000
vt 0.499900 -0.800000 0.000000
vt 0.450000 -2.000000 0.000000
vt 0.450000 1.000000 0.000000
vt 0.500000 1.000000 0.000000
vt 0.500000 -0.800000 0.000000
vt -0.450000 0.000000 0.000000
vt 0.000000 0.000000 0.000000
vt -0.450000 3.000000 0.000000
vt 0.000000 3.000000 0.000000
vt -0.450000 0.000000 0.000000
vt 0.000000 0.000000 0.000000
vt -0.450000 3.000000 0.000000
vt 0.000000 3.000000 0.000000
vt -0.450000 0.000000 0.000000
vt -0.000000 0.000000 0.000000
vt -0.450000 3.000000 0.000000
vt -0.000000 3.000000 0.000000
vt -0.446574 0.000000 0.000000
vt 0.003426 0.000000 0.000000
vt -0.446574 3.000000 0.000000
vt 0.003426 3.000000 0.000000
vt 9.500000 2.500000 0.000000
vt 9.450000 2.500000 0.000000
vt 9.499000 0.700000 0.000000
vt 9.450000 -0.500000 0.000000
vt 9.499000 -0.500000 0.000000
vt 9.500000 0.700000 0.000000
vt -0.499000 -0.500000 0.000000
vt -0.450000 -0.500000 0.000000
vt -0.499000 0.700000 0.000000
vt -0.450000 2.500000 0.000000
vt -0.500000 2.500000 0.000000
vt -0.500000 0.700000 0.000000
vt -0.200000 -0.250000 0.000000
vt -0.200000 0.200000 0.000000
vt -0.250000 -0.250000 0.000000
vt -0.250000 0.250000 0.000000
vt 0.250000 0.250000 0.000000
vt 0.250000 0.200000 0.000000
vt 0.200000 -0.250000 0.000000
vt 0.250000 -0.250000 0.000000
vt 0.200000 0.200000 0.000000
vt 0.250000 0.250000 0.000000
vt -0.250000 0.250000 0.000000
vt -0.250000 0.200000 0.000000
vt 9.500000 2.500000 0.000000
vt 9.500000 0.700000 0.000000
vt 10.000000 2.500000 0.000000
vt 10.000000 -1.000000 0.000000
vt 0.000000 -1.000000 0.000000
vt 0.500000 0.700000 0.000000
vt 0.000000 2.500000 0.000000
vt 0.500000 2.500000 0.000000
vt -4.500000 4.999000 0.000000
vt 4.500000 4.999000 0.000000
vt -4.500000 5.000000 0.000000
vt 4.500000 5.000000 0.000000
vt 0.700000 0.000000 0.000000
vt -0.500000 0.000000 0.000000
vt 0.700000 -9.000000 0.000000
vt -0.500000 -9.000000 0.000000
vt -0.450000 0.000000 0.000000
vt -0.000000 0.000000 0.000000
vt -0.450000 3.000000 0.000000
vt -0.000000 3.000000 0.000000
vt -0.000623 3.000000 0.000000
vt -0.450623 3.000000 0.000000
vt -0.000623 0.000000 0.000000
vt -0.450623 0.000000 0.000000
vt 9.500000 0.700000 0.000000
vt 9.500000 2.500000 0.000000
vt 9.499000 0.700000 0.000000
vt 9.450000 2.500000 0.000000
vt 9.450000 -0.500000 0.000000
vt 9.499000 -0.500000 0.000000
vt 0.001000 -2.000000 0.000000
vt 0.050000 -2.000000 0.000000
vt 0.001000 -0.800000 0.000000
vt 0.050000 1.000000 0.000000
vt 0.000000 1.000000 0.000000
vt 0.000000 -0.800000 0.000000
vt -0.200000 0.250000 0.000000
vt -0.250000 0.250000 0.000000
vt -0.200000 -0.200000 0.000000
vt -0.250000 -0.250000 0.000000
vt 0.250000 -0.250000 0.000000
vt 0.250000 -0.200000 0.000000
vt -0.450000 0.000000 0.000000
vt -0.000000 0.000000 0.000000
vt -0.450000 3.000000 0.000000
vt -0.000000 3.000000 0.000000
vt -0.450000 0.000000 0.000000
vt -0.000000 0.000000 0.000000
vt -0.450000 3.000000 0.000000
vt -0.000000 3.000000 0.000000
vt 0.200000 0.250000 0.000000
vt 0.200000 -0.200000 0.000000
vt 0.250000 0.250000 0.000000
vt 0.250000 -0.250000 0.000000
vt -0.250000 -0.250000 0.000000
vt -0.250000 -0.200000 0.000000
vt 0.500000 -0.800000 0.000000
vt 0.500000 1.000000 0.000000
vt 0.499000 -0.800000 0.000000
vt 0.450000 1.000000 0.000000
vt 0.450000 -2.000000 0.000000
vt 0.499000 -2.000000 0.000000
vt -0.499900 -0.500000 0.000000
vt -0.450000 -0.500000 0.000000
vt -0.499900 0.700000 0.000000
vt -0.450000 2.500000 0.000000
vt -0.500000 2.500000 0.000000
vt -0.500000 0.700000 0.000000
vt 0.500000 9.000000 0.000000
vt -0.700000 9.000000 0.000000
vt 0.500000 0.000000 0.000000
vt -0.700000 0.000000 0.000000
vt 4.500000 -4.999000 0.000000
vt -4.500000 -4.999000 0.000000
vt 4.500000 -5.000000 0.000000
vt -4.500000 -5.000000 0.000000
vt 0.000000 2.500000 0.000000
vt 0.000000 -1.000000 0.000000
vt 0.500000 0.700000 0.000000
vt 10.000000 -1.000000 0.000000
vt 9.500000 0.700000 0.000000
vt 10.000000 2.500000 0.000000
vt 9.500000 2.500000 0.000000
vt 0.500000 2.500000 0.000000
vt 0.500000 9.000000 0.000000
vt -0.700000 9.000000 0.000000
vt 0.500000 0.000000 0.000000
vt -0.700000 0.000000 0.000000
vt -4.999000 4.500000 0.000000
vt -5.000000 4.500000 0.000000
vt -4.999000 -4.500000 0.000000
vt -5.000000 -4.500000 0.000000
vt 0.700000 0.000000 0.000000
vt -0.500000 0.000000 0.000000
vt 0.700000 -9.000000 0.000000
vt -0.500000 -9.000000 0.000000
vt -5.000000 -5.000000 0.000000
vt 5.000000 -5.000000 0.000000
vt -5.000000 5.000000 0.000000
vt 5.000000 5.000000 0.000000
vt 0.500000 0.700000 0.000000
vt 0.000000 -1.000000 0.000000
vt 9.500000 0.700000 0.000000
vt 10.000000 -1.000000 0.000000
vt 10.000000 2.500000 0.000000
vt 0.500000 2.500000 0.000000
vt 0.000000 2.500000 0.000000
vt 9.500000 2.500000 0.000000
vt 4.500000 -4.999000 0.000000
vt 4.500000 -4.950000 0.000000
vt -4.500000 -4.999000 0.000000
vt -4.500000 -4.950000 0.000000
vt 4.950000 -4.500000 0.000000
vt 4.950000 4.500000 0.000000
vt 4.999900 -4.500000 0.000000
vt 4.999900 4.500000 0.000000
vt 4.950000 -4.950000 0.000000
vt 4.950000 4.950000 0.000000
vt 4.500000 4.950000 0.000000
vt -4.500000 4.950000 0.000000
vt -4.950000 4.500000 0.000000
vt -4.950000 4.950000 0.000000
vt 4.500000 4.999000 0.000000
vt -4.500000 4.999000 0.000000
vt -4.999000 4.500000 0.000000
vt -4.999000 -4.500000 0.000000
vt -4.950000 -4.500000 0.000000
vt -4.950000 -4.950000 0.000000
vt 4.999900 -4.500000 0.000000
vt 5.000000 -4.500000 0.000000
vt 4.999900 4.500000 0.000000
vt 5.000000 4.500000 0.000000
vt 0.000000 2.500000 0.000000
vt 0.000000 -1.000000 0.000000
vt 0.500000 0.700000 0.000000
vt 10.000000 -1.000000 0.000000
vt 9.500000 0.700000 0.000000
vt 10.000000 2.500000 0.000000
vt 9.500000 2.500000 0.000000
vt 0.500000 2.500000 0.000000
vn -0.000000 -1.000000 -0.000000
vn -0.000000 -1.000000 -0.000000
vn -0.000000 -1.000000 -0.000000
vn -0.000000 -1.000000 -0.000000
vn -0.000000 -1.000000 -0.000000
vn -0.000000 -1.000000 -0.000000
vn -0.000000 -1.000000 -0.000000
vn -0.000000 -1.000000 -0.000000
vn -0.000000 -1.000000 -0.000000
vn -0.000000 -1.000000 -0.000000
vn -0.000000 -1.000000 -0.000000
vn -0.000000 -1.000000 -0.000000
vn 1.000000 -0.000000 -0.000000
vn 1.000000 -0.000000 -0.000000
vn 1.000000 -0.000000 -0.000000
vn 1.000000 -0.000000 -0.000000
vn -0.000000 -1.000000 -0.000000
vn -0.000000 -1.000000 -0.000000
vn -0.000000 -1.000000 -0.000000
vn -0.000000 -1.000000 -0.000000
vn -0.000000 -1.000000 0.000000
vn -0.000000 -1.000000 0.000000
vn -0.000000 -1.000000 0.000000
vn -0.000000 -1.000000 0.000000
vn -1.000000 -0.000000 -0.000000
vn -1.000000 -0.000000 -0.000000
vn -1.000000 -0.000000 -0.000000
vn -1.000000 -0.000000 -0.000000
vn -1.000000 -0.000000 -0.000000
vn -1.000000 -0.000000 -0.000000
vn -1.000000 -0.000000 -0.000000
vn -1.000000 -0.000000 -0.000000
vn -1.000000 -0.000000 -0.000000
vn -1.000000 -0.000000 -0.000000
vn 1.000000 0.000000 0.000000
vn 1.000000 0.000000 0.000000
vn 1.000000 0.000000 0.000000
vn 1.000000 0.000000 0.000000
vn 1.000000 0.000000 0.000000
vn 1.000000 0.000000 0.000000
vn 0.000000 0.000000 -1.000000
vn 0.000000 0.000000 -1.000000
vn 0.000000 0.000000 -1.000000
vn 0.000000 0.000000 -1.000000
vn 0.000000 0.000000 -1.000000
vn 0.000000 0.000000 -1.000000
vn 0.000000 0.000000 -1.000000
vn 0.000000 0.000000 -1.000000
vn 0.000000 0.000000 -1.000000
vn 0.000000 0.000000 -1.000000
vn 0.000000 0.000000 -1.000000
vn 0.000000 0.000000 -1.000000
vn -0.000000 1.000000 0.000000
vn -0.000000 1.000000 0.000000
vn -0.000000 1.000000 0.000000
vn -0.000000 1.000000 0.000000
vn -0.000000 1.000000 0.000000
vn -0.000000 1.000000 0.000000
vn -0.000000 1.000000 0.000000
vn -0.000000 1.000000 0.000000
vn -0.000000 -0.000000 -1.000000
vn -0.000000 -0.000000 -1.000000
vn -0.000000 -0.000000 -1.000000
vn -0.000000 -0.000000 -1.000000
vn -0.000000 -1.000000 -0.000000
vn -0.000000 -1.000000 -0.000000
vn -0.000000 -1.000000 -0.000000
vn -0.000000 -1.000000 -0.000000
vn -1.000000 -0.000000 0.000000
vn -1.000000 -0.000000 0.000000
vn -1.000000 -0.000000 0.000000
vn -1.000000 -0.000000 0.000000
vn -0.000000 1.000000 -0.000000
vn -0.000000 1.000000 -0.000000
vn -0.000000 1.000000 -0.000000
vn -0.000000 1.000000 -0.000000
vn 0.000000 1.000000 0.000000
vn 0.000000 1.000000 0.000000
vn 0.000000 1.000000 0.000000
vn 0.000000 1.000000 0.000000
vn 0.000000 1.000000 0.000000
vn 0.000000 1.000000 0.000000
vn -1.000000 0.000000 0.000000
vn -1.000000 0.000000 0.000000
vn -1.000000 0.000000 0.000000
vn -1.000000 0.000000 0.000000
vn -1.000000 0.000000 0.000000
vn -1.000000 0.000000 0.000000
vn 0.000000 0.000000 -1.000000
vn 0.000000 0.000000 -1.000000
vn 0.000000 0.000000 -1.000000
vn 0.000000 0.000000 -1.000000
vn 0.000000 0.000000 -1.000000
vn 0.000000 0.000000 -1.000000
vn 1.000000 -0.000000 -0.000000
vn 1.000000 -0.000000 -0.000000
vn 1.000000 -0.000000 -0.000000
vn 1.000000 -0.000000 -0.000000
vn -0.000000 1.000000 -0.000000
vn -0.000000 1.000000 -0.000000
vn -0.000000 1.000000 -0.000000
vn -0.000000 1.000000 -0.000000
vn 0.000000 0.000000 -1.000000
vn 0.000000 0.000000 -1.000000
vn 0.000000 0.000000 -1.000000
vn 0.000000 0.000000 -1.000000
vn 0.000000 0.000000 -1.000000
vn 0.000000 0.000000 -1.000000
vn 1.000000 -0.000000 0.000000
vn 1.000000 -0.000000 0.000000
vn 1.000000 -0.000000 0.000000
vn 1.000000 -0.000000 0.000000
vn 1.000000 -0.000000 0.000000
vn 1.000000 -0.000000 0.000000
vn 0.000000 1.000000 0.000000
vn 0.000000 1.000000 0.000000
vn 0.000000 1.000000 0.000000
vn 0.000000 1.000000 0.000000
vn 0.000000 1.000000 0.000000
vn 0.000000 1.000000 0.000000
vn -0.000000 1.000000 -0.000000
vn -0.000000 1.000000 -0.000000
vn -0.000000 1.000000 -0.000000
vn -0.000000 1.000000 -0.000000
vn -0.000000 -0.000000 -1.000000
vn -0.000000 -0.000000 -1.000000
vn -0.000000 -0.000000 -1.000000
vn -0.000000 -0.000000 -1.000000
vn -0.000000 -1.000000 -0.000000
vn -0.000000 -1.000000 -0.000000
vn -0.000000 -1.000000 -0.000000
vn -0.000000 -1.000000 -0.000000
vn -0.000000 -1.000000 -0.000000
vn -0.000000 -1.000000 -0.000000
vn -0.000000 -1.000000 -0.000000
vn -0.000000 -1.000000 -0.000000
vn -1.000000 -0.000000 -0.000000
vn -1.000000 -0.000000 -0.000000
vn -1.000000 -0.000000 -0.000000
vn -1.000000 -0.000000 -0.000000
vn -0.000000 -0.000000 -1.000000
vn -0.000000 -0.000000 -1.000000
vn -0.000000 -0.000000 -1.000000
vn -0.000000 -0.000000 -1.000000
vn 1.000000 -0.000000 -0.000000
vn 1.000000 -0.000000 -0.000000
vn 1.000000 -0.000000 -0.000000
vn 1.000000 -0.000000 -0.000000
vn 0.000000 0.000000 1.000000
vn 0.000000 0.000000 1.000000
vn 0.000000 0.000000 1.000000
vn 0.000000 0.000000 1.000000
vn 1.000000 0.000000 0.000000
vn 1.000000 0.000000 0.000000
vn 1.000000 0.000000 0.000000
vn 1.000000 0.000000 0.000000
vn 1.000000 0.000000 0.000000
vn 1.000000 0.000000 0.000000
vn 1.000000 0.000000 0.000000
vn 1.000000 0.000000 0.000000
vn -0.000000 -0.000000 -1.000000
vn -0.000000 -0.000000 -1.000000
vn -0.000000 -0.000000 -1.000000
vn -0.000000 -0.000000 -1.000000
vn -0.000000 -0.000000 -1.000000
vn -0.000000 -0.000000 -1.000000
vn -0.000000 -0.000000 -1.000000
vn -0.000000 -0.000000 -1.000000
vn -0.000000 -0.000000 -1.000000
vn -0.000000 -0.000000 -1.000000
vn -0.000000 -0.000000 -1.000000
vn -0.000000 -0.000000 -1.000000
vn -0.000000 -0.000000 -1.000000
vn -0.000000 -0.000000 -1.000000
vn -0.000000 -0.000000 -1.000000
vn -0.000000 -0.000000 -1.000000
vn -0.000000 -0.000000 -1.000000
vn -0.000000 -0.000000 -1.000000
vn -0.000000 -0.000000 -1.000000
vn -0.000000 -0.000000 -1.000000
vn -0.000000 -0.000000 -1.000000
vn -0.000000 -0.000000 -1.000000
vn -0.000000 -0.000000 -1.000000
vn -0.000000 -0.000000 -1.000000
vn -1.000000 0.000000 0.000000
vn -1.000000 0.000000 0.000000
vn -1.000000 0.000000 0.000000
vn -1.000000 0.000000 0.000000
vn -1.000000 0.000000 0.000000
vn -1.000000 0.000000 0.000000
vn -1.000000 0.000000 0.000000
vn -1.000000 0.000000 0.000000
usemtl Steel_-_Satin
f 1/1/1 2/2/2 6/3/3
f 6/3/3 2/2/2 3/4/4
f 6/3/3 3/4/4 4/5/5
f 4/5/5 5/6/6 6/3/3
f 8/7/7 9/8/8 7/9/9
f 7/9/9 9/8/8 12/10/10
f 12/10/10 9/8/8 11/11/11
f 11/11/11 9/8/8 10/12/12
f 12/13/13 13/14/14 7/15/15
f 7/15/15 13/14/14 14/16/16
f 13/17/17 15/18/18 14/19/19
f 14/19/19 15/18/18 16/20/20
f 18/21/21 19/22/22 17/23/23
f 17/23/23 19/22/22 20/24/24
f 19/25/25 3/26/26 20/27/27
f 20/27/27 3/26/26 2/28/28
f 24/29/29 18/30/30 22/31/31
f 22/31/31 18/30/30 17/32/32
f 22/31/31 17/32/32 21/33/33
f 22/31/31 23/34/34 24/29/29
f 28/35/35 16/36/36 27/37/37
f 27/37/37 16/36/36 15/38/38
f 27/37/37 15/38/38 25/39/39
f 25/39/39 26/40/40 27/37/37
f 3/41/41 19/42/42 4/43/43
f 4/43/43 19/42/42 29/44/44
f 29/44/44 19/42/42 24/45/45
f 24/45/45 19/42/42 18/46/46
f 12/47/47 11/48/48 13/49/49
f 13/49/49 11/48/48 30/50/50
f 13/49/49 30/50/50 25/51/51
f 25/51/51 15/52/52 13/49/49
f 24/53/53 23/54/54 29/55/55
f 29/55/55 23/54/54 32/56/56
f 32/56/56 23/54/54 31/57/57
f 31/57/57 23/54/54 26/58/58
f 31/57/57 26/58/58 30/59/59
f 30/59/59 26/58/58 25/60/60
f 22/61/61 27/62/62 23/63/63
f 23/63/63 27/62/62 26/64/64
f 22/65/65 21/66/66 27/67/67
f 27/67/67 21/66/66 28/68/68
f 33/69/69 34/70/70 36/71/71
f 36/71/71 34/70/70 35/72/72
f 38/73/73 35/74/74 37/75/75
f 37/75/75 35/74/74 34/76/76
f 40/77/77 41/78/78 39/79/79
f 39/79/79 41/78/78 33/80/80
f 39/79/79 33/80/80 36/81/81
f 36/81/81 42/82/82 39/79/79
f 43/83/83 38/84/84 46/85/85
f 46/85/85 38/84/84 37/86/86
f 46/85/85 37/86/86 44/87/87
f 44/87/87 45/88/88 46/85/85
f 33/89/89 41/90/90 34/91/91
f 34/91/91 41/90/90 47/92/92
f 34/91/91 47/92/92 44/93/93
f 44/93/93 37/94/94 34/91/91
f 48/95/95 49/96/96 51/97/97
f 51/97/97 49/96/96 50/98/98
f 52/99/99 48/100/100 53/101/101
f 53/101/101 48/100/100 51/102/102
f 49/103/103 48/104/104 56/105/105
f 56/105/105 48/104/104 55/106/106
f 55/106/106 48/104/104 54/107/107
f 54/107/107 48/104/104 52/108/108
f 58/109/109 54/110/110 57/111/111
f 57/111/111 54/110/110 52/112/112
f 57/111/111 52/112/112 53/113/113
f 53/113/113 59/114/114 57/111/111
f 60/115/115 50/116/116 62/117/117
f 62/117/117 50/116/116 49/118/118
f 62/117/117 49/118/118 56/119/119
f 56/119/119 61/120/120 62/117/117
f 43/121/121 46/122/122 59/123/123
f 59/123/123 46/122/122 57/124/124
f 57/125/125 46/126/126 58/127/127
f 58/127/127 46/126/126 45/128/128
f 47/129/129 63/130/130 45/131/131
f 45/131/131 63/130/130 64/132/132
f 45/131/131 64/132/132 58/133/133
f 58/133/133 64/132/132 55/134/134
f 58/133/133 55/134/134 54/135/135
f 45/131/131 44/136/136 47/129/129
f 1/137/137 6/138/138 42/139/139
f 42/139/139 6/138/138 39/140/140
f 6/141/141 5/142/142 39/143/143
f 39/143/143 5/142/142 40/144/144
f 9/145/145 8/146/146 62/147/147
f 62/147/147 8/146/146 60/148/148
f 64/149/149 63/150/150 31/151/151
f 31/151/151 63/150/150 32/152/152
f 5/153/153 32/154/154 40/155/155
f 40/155/155 32/154/154 63/156/156
f 40/155/155 63/156/156 47/157/157
f 4/158/158 29/159/159 5/153/153
f 5/153/153 29/159/159 32/154/154
f 47/157/157 41/160/160 40/155/155
f 59/161/161 53/162/162 43/163/163
f 43/163/163 53/162/162 38/164/164
f 38/164/164 53/162/162 50/165/165
f 38/164/164 50/165/165 7/166/166
f 7/166/166 50/165/165 60/167/167
f 7/166/166 60/167/167 8/168/168
f 53/162/162 51/169/169 50/165/165
f 14/170/170 16/171/171 7/166/166
f 7/166/166 16/171/171 17/172/172
f 7/166/166 17/172/172 2/173/173
f 2/173/173 17/172/172 20/174/174
f 28/175/175 21/176/176 16/171/171
f 16/171/171 21/176/176 17/172/172
f 1/177/177 42/178/178 2/173/173
f 2/173/173 42/178/178 36/179/179
f 2/173/173 36/179/179 7/166/166
f 7/166/166 36/179/179 38/164/164
f 36/179/179 35/180/180 38/164/164
f 62/181/181 61/182/182 9/183/183
f 9/183/183 61/182/182 10/184/184
f 55/185/185 64/186/186 61/187/187
f 61/187/187 64/186/186 31/188/188
f 61/187/187 31/188/188 10/189/189
f 10/189/189 31/188/188 30/190/190
f 10/189/189 30/190/190 11/191/191
f 61/187/187 56/192/192 55/185/185
# 64 vertices
# 192 texture params
# 192 normals
# 124 facets

# 1 groups
